<svg xmlns="http://www.w3.org/2000/svg" xmlns:xlink="http://www.w3.org/1999/xlink" viewBox="0 0 64 64"><linearGradient id="AiazHL~PfiZUHqDfUMy9Ma" x1="12.315" x2="12.315" y1="4.167" y2="59.168" gradientUnits="userSpaceOnUse" spreadMethod="reflect"><stop offset="0" stop-color="#1a6dff"/><stop offset="1" stop-color="#c822ff"/></linearGradient><path fill="url(#AiazHL~PfiZUHqDfUMy9Ma)" d="M9.8,45.771c1.027,1.637,2.24,3.162,3.606,4.536l1.424-1.408 c-1.261-1.269-2.381-2.678-3.329-4.188L9.8,45.771z"/><linearGradient id="AiazHL~PfiZUHqDfUMy9Mb" x1="7.592" x2="7.592" y1="4.167" y2="59.168" gradientUnits="userSpaceOnUse" spreadMethod="reflect"><stop offset="0" stop-color="#1a6dff"/><stop offset="1" stop-color="#c822ff"/></linearGradient><path fill="url(#AiazHL~PfiZUHqDfUMy9Mb)" d="M6.003,34.906c0.215,1.923,0.646,3.823,1.283,5.646l1.894-0.658 c-0.588-1.682-0.985-3.435-1.183-5.209L6.003,34.906z"/><linearGradient id="AiazHL~PfiZUHqDfUMy9Mc" x1="7.586" x2="7.586" y1="4.167" y2="59.168" gradientUnits="userSpaceOnUse" spreadMethod="reflect"><stop offset="0" stop-color="#1a6dff"/><stop offset="1" stop-color="#c822ff"/></linearGradient><path fill="url(#AiazHL~PfiZUHqDfUMy9Mc)" d="M9.173,24.127l-1.894-0.656C6.643,25.295,6.213,27.196,6,29.121l1.994,0.219 C8.19,27.563,8.587,25.81,9.173,24.127z"/><linearGradient id="AiazHL~PfiZUHqDfUMy9Md" x1="12.299" x2="12.299" y1="4.167" y2="59.168" gradientUnits="userSpaceOnUse" spreadMethod="reflect"><stop offset="0" stop-color="#1a6dff"/><stop offset="1" stop-color="#c822ff"/></linearGradient><path fill="url(#AiazHL~PfiZUHqDfUMy9Md)" d="M14.813,15.115l-1.426-1.406c-1.364,1.374-2.576,2.901-3.602,4.538l1.7,1.061 C12.433,17.796,13.552,16.385,14.813,15.115z"/><linearGradient id="AiazHL~PfiZUHqDfUMy9Me" x1="20.846" x2="20.846" y1="4.167" y2="59.168" gradientUnits="userSpaceOnUse" spreadMethod="reflect"><stop offset="0" stop-color="#1a6dff"/><stop offset="1" stop-color="#c822ff"/></linearGradient><path fill="url(#AiazHL~PfiZUHqDfUMy9Me)" d="M23.789,9.403l-0.676-1.883c-1.821,0.65-3.574,1.509-5.211,2.551l1.079,1.686 C20.493,10.795,22.11,10.003,23.789,9.403z"/><linearGradient id="AiazHL~PfiZUHqDfUMy9Mf" x1="20.869" x2="20.869" y1="4.167" y2="59.168" gradientUnits="userSpaceOnUse" spreadMethod="reflect"><stop offset="0" stop-color="#1a6dff"/><stop offset="1" stop-color="#c822ff"/></linearGradient><path fill="url(#AiazHL~PfiZUHqDfUMy9Mf)" d="M17.924,53.942c1.64,1.04,3.395,1.896,5.215,2.546l0.676-1.883 c-1.68-0.6-3.3-1.39-4.813-2.351L17.924,53.942z"/><linearGradient id="AiazHL~PfiZUHqDfUMy9Mg" x1="43.399" x2="43.399" y1="4.167" y2="59.168" gradientUnits="userSpaceOnUse" spreadMethod="reflect"><stop offset="0" stop-color="#1a6dff"/><stop offset="1" stop-color="#c822ff"/></linearGradient><path fill="url(#AiazHL~PfiZUHqDfUMy9Mg)" d="M31.921,6c-1.042,0-2.093,0.063-3.124,0.185l0.237,1.986C29.988,8.058,30.958,8,31.921,8 c13.274,0,24.073,10.767,24.073,24S45.195,56,31.921,56c-0.963,0-1.934-0.058-2.887-0.171l-0.237,1.986 C29.828,57.938,30.879,58,31.921,58C46.302,58,58,46.337,58,32S46.302,6,31.921,6z"/><linearGradient id="AiazHL~PfiZUHqDfUMy9Mh" x1="31.921" x2="31.921" y1="20.667" y2="45.235" gradientUnits="userSpaceOnUse" spreadMethod="reflect"><stop offset="0" stop-color="#6dc7ff"/><stop offset="1" stop-color="#e6abff"/></linearGradient><path fill="url(#AiazHL~PfiZUHqDfUMy9Mh)" d="M27.908,41.937c-1.028,0-2.056-0.391-2.839-1.171l-7.606-7.583l2.837-2.828l7.606,7.583 l15.636-15.583l2.837,2.828l-15.63,15.583C29.965,41.546,28.937,41.937,27.908,41.937z"/></svg>