<svg xmlns="http://www.w3.org/2000/svg" xmlns:xlink="http://www.w3.org/1999/xlink" viewBox="0 0 64 64"><linearGradient id="eyyISrT1mQhx_NuEsJEDOa" x1="32" x2="32" y1="5.5" y2="58.619" gradientUnits="userSpaceOnUse" spreadMethod="reflect"><stop offset="0" stop-color="#1a6dff"/><stop offset="1" stop-color="#c822ff"/></linearGradient><path fill="url(#eyyISrT1mQhx_NuEsJEDOa)" d="M48,12h-2v-1c0-1.103-0.897-2-2-2h-7.42C35.806,7.236,34.046,6,32,6s-3.806,1.236-4.58,3H20 c-1.103,0-2,0.897-2,2v1h-2c-2.206,0-4,1.794-4,4v38c0,2.206,1.794,4,4,4h32c2.206,0,4-1.794,4-4V16C52,13.794,50.206,12,48,12z M44,11v1h-7v-1H44z M29,11c0-1.654,1.346-3,3-3s3,1.346,3,3l0.002,7H29V11z M29,20h6c1.103,0,2-0.897,2-2h9v31H18V18h9 C27,19.103,27.897,20,29,20z M18,51h28v1H18V51z M20,11h7v1h-7V11z M50,54c0,1.103-0.897,2-2,2H16c-1.103,0-2-0.897-2-2V16 c0-1.103,0.897-2,2-2h11v2h-9c-1.103,0-2,0.897-2,2v31v3c0,1.103,0.897,2,2,2h28c1.103,0,2-0.897,2-2v-3V18c0-1.103-0.897-2-2-2h-9 v-2h11c1.103,0,2,0.897,2,2V54z"/><linearGradient id="eyyISrT1mQhx_NuEsJEDOb" x1="32" x2="32" y1="5.5" y2="58.619" gradientUnits="userSpaceOnUse" spreadMethod="reflect"><stop offset="0" stop-color="#1a6dff"/><stop offset="1" stop-color="#c822ff"/></linearGradient><path fill="url(#eyyISrT1mQhx_NuEsJEDOb)" d="M24.293,30.707l4.294,4.294c0.39,0.39,0.901,0.585,1.413,0.585s1.023-0.195,1.413-0.585 l8.294-8.294l-1.414-1.414l-8.292,8.294l-4.294-4.294L24.293,30.707z"/><linearGradient id="eyyISrT1mQhx_NuEsJEDOc" x1="32" x2="32" y1="5.5" y2="58.619" gradientUnits="userSpaceOnUse" spreadMethod="reflect"><stop offset="0" stop-color="#1a6dff"/><stop offset="1" stop-color="#c822ff"/></linearGradient><path fill="url(#eyyISrT1mQhx_NuEsJEDOc)" d="M23 39H41V41H23z"/><linearGradient id="eyyISrT1mQhx_NuEsJEDOd" x1="32" x2="32" y1="5.5" y2="58.619" gradientUnits="userSpaceOnUse" spreadMethod="reflect"><stop offset="0" stop-color="#1a6dff"/><stop offset="1" stop-color="#c822ff"/></linearGradient><path fill="url(#eyyISrT1mQhx_NuEsJEDOd)" d="M25 43H39V45H25z"/><linearGradient id="eyyISrT1mQhx_NuEsJEDOe" x1="32" x2="32" y1="50.833" y2="52.376" gradientUnits="userSpaceOnUse" spreadMethod="reflect"><stop offset="0" stop-color="#6dc7ff"/><stop offset="1" stop-color="#e6abff"/></linearGradient><path fill="url(#eyyISrT1mQhx_NuEsJEDOe)" d="M18 51H46V52H18z"/><linearGradient id="eyyISrT1mQhx_NuEsJEDOf" x1="23.5" x2="23.5" y1="10.5" y2="12.754" gradientUnits="userSpaceOnUse" spreadMethod="reflect"><stop offset="0" stop-color="#6dc7ff"/><stop offset="1" stop-color="#e6abff"/></linearGradient><path fill="url(#eyyISrT1mQhx_NuEsJEDOf)" d="M20 11H27V12H20z"/><linearGradient id="eyyISrT1mQhx_NuEsJEDOg" x1="40.5" x2="40.5" y1="10.5" y2="12.754" gradientUnits="userSpaceOnUse" spreadMethod="reflect"><stop offset="0" stop-color="#6dc7ff"/><stop offset="1" stop-color="#e6abff"/></linearGradient><path fill="url(#eyyISrT1mQhx_NuEsJEDOg)" d="M37 11H44V12H37z"/></svg>