<svg xmlns="http://www.w3.org/2000/svg" xmlns:xlink="http://www.w3.org/1999/xlink" viewBox="0 0 64 64"><path fill="#85cbf8" d="M5 9H59V55H5z"/><path fill="#ace3ff" d="M56,14H8a3,3,0,0,1-3-3H5A2,2,0,0,1,7,9H57a2,2,0,0,1,2,2h0A3,3,0,0,1,56,14Z"/><path fill="#6fc6f0" d="M58,55H6a1,1,0,0,1-1-1H5a4,4,0,0,1,4-4H56a3,3,0,0,1,3,3v1A1,1,0,0,1,58,55Z"/><path fill="#8d6c9f" d="M57,8H7a3,3,0,0,0-3,3V53a3,3,0,0,0,3,3H57a3,3,0,0,0,3-3V11A3,3,0,0,0,57,8Zm1,45a1,1,0,0,1-1,1H7a1,1,0,0,1-1-1V11a1,1,0,0,1,1-1H57a1,1,0,0,1,1,1Z"/><path fill="#8d6c9f" d="M20 48a1 1 0 0 0-1 1v2a1 1 0 0 0 2 0V49A1 1 0 0 0 20 48zM15 48a1 1 0 0 0-1 1v2a1 1 0 0 0 2 0V49A1 1 0 0 0 15 48zM10 48a1 1 0 0 0-1 1v2a1 1 0 0 0 2 0V49A1 1 0 0 0 10 48zM35 48a1 1 0 0 0-1 1v2a1 1 0 0 0 2 0V49A1 1 0 0 0 35 48zM40 48a1 1 0 0 0-1 1v2a1 1 0 0 0 2 0V49A1 1 0 0 0 40 48zM45 48a1 1 0 0 0-1 1v2a1 1 0 0 0 2 0V49A1 1 0 0 0 45 48zM50 48a1 1 0 0 0-1 1v2a1 1 0 0 0 2 0V49A1 1 0 0 0 50 48zM55 48a1 1 0 0 0-1 1v2a1 1 0 0 0 2 0V49A1 1 0 0 0 55 48zM25 48a1 1 0 0 0-1 1v2a1 1 0 0 0 2 0V49A1 1 0 0 0 25 48zM30 48a1 1 0 0 0-1 1v2a1 1 0 0 0 2 0V49A1 1 0 0 0 30 48z"/><path fill="#fff" d="M25 24h4a1 1 0 0 0 0-2H25a1 1 0 0 0 0 2zM33 24H47a1 1 0 0 0 0-2H33a1 1 0 0 0 0 2zM25 32H49a1 1 0 0 0 0-2H25a1 1 0 0 0 0 2zM43 38H39a1 1 0 0 0 0 2h4a1 1 0 0 0 0-2zM35 38H25a1 1 0 0 0 0 2H35a1 1 0 0 0 0-2zM15 26a1 1 0 0 0 .71-.29l4-4a1 1 0 0 0-1.41-1.41L15 23.59l-1.29-1.29a1 1 0 0 0-1.41 1.41l2 2A1 1 0 0 0 15 26z"/></svg>